<svg width="36" height="36" viewBox="0 0 36 36" fill="none" xmlns="http://www.w3.org/2000/svg">
<path d="M17.775 28.1562L7.83316 18.2143C6.61167 16.9929 6 15.3923 6 13.7775C6 12.1695 6.61219 10.5616 7.83316 9.34066C9.05566 8.11816 10.6717 7.5 12.2775 7.5C13.8855 7.5 15.4934 8.11219 16.7143 9.33316L17.7724 10.3912L18.833 9.33578C20.0641 8.1108 21.6667 7.5 23.2725 7.5C24.885 7.5 26.4938 8.11764 27.7168 9.34066C28.9445 10.5684 29.55 12.1683 29.55 13.7775C29.55 15.3855 28.9378 16.9934 27.7168 18.2143L17.775 28.1562Z" stroke="white" stroke-width="3"/>
</svg>
